<svg xmlns="http://www.w3.org/2000/svg" viewBox="0 0 64 64" fill="none">
  <defs>
    <linearGradient id="skillhub-brand-grad" x1="0%" y1="0%" x2="100%" y2="100%">
      <stop offset="0%" stop-color="#00b074" />
      <stop offset="100%" stop-color="#008759" />
    </linearGradient>
  </defs>

  <!-- Skill Hub Brand Rounded Squircle -->
  <rect x="2" y="2" width="60" height="60" rx="16" fill="url(#skillhub-brand-grad)" />
  <rect x="2.5" y="2.5" width="59" height="59" rx="15.5" stroke="#ffffff" stroke-opacity="0.22" stroke-width="1" />

  <!-- Skill Hub Diamond Star Sparkle -->
  <g transform="translate(14, 14) scale(1.5)">
    <path
      d="m12 3-1.912 5.813a2 2 0 0 1-1.275 1.275L3 12l5.813 1.912a2 2 0 0 1 1.275 1.275L12 21l1.912-5.813a2 2 0 0 1 1.275-1.275L21 12l-5.813-1.912a2 2 0 0 1-1.275-1.275L12 3Z"
      fill="#ffffff"
      stroke="#ffffff"
      stroke-width="0.8"
      stroke-linejoin="round"
    />
  </g>
</svg>